<svg xmlns="http://www.w3.org/2000/svg" width="443.82" height="55.68" viewBox="0 0 443.82 55.68">
  <path id="Path_2" data-name="Path 2" d="M4.68-42.84V0H34.44V-4.8H10.38V-19.62H32.64v-4.8H10.38V-38.04H34.26v-4.8ZM40.5-31.02V0h5.1V-19.32a7.4,7.4,0,0,1,.45-2.25,8.662,8.662,0,0,1,1.44-2.61,8.635,8.635,0,0,1,2.58-2.16,7.615,7.615,0,0,1,3.81-.9,6.858,6.858,0,0,1,2.85.51,4.344,4.344,0,0,1,1.77,1.44,5.856,5.856,0,0,1,.93,2.19,13.182,13.182,0,0,1,.27,2.76V0h5.1V-19.32a7.785,7.785,0,0,1,2.16-5.76,8.027,8.027,0,0,1,5.94-2.16,7.274,7.274,0,0,1,3.03.54,4.492,4.492,0,0,1,1.83,1.47,5.514,5.514,0,0,1,.9,2.19,14.427,14.427,0,0,1,.24,2.7V0H84V-22.74a10.194,10.194,0,0,0-.75-4.11,7.208,7.208,0,0,0-2.1-2.79,8.773,8.773,0,0,0-3.24-1.59,16.239,16.239,0,0,0-4.23-.51,11.6,11.6,0,0,0-5.61,1.38,10.829,10.829,0,0,0-4.11,3.9,6.721,6.721,0,0,0-3.3-4.08,11.271,11.271,0,0,0-5.22-1.2,11.28,11.28,0,0,0-10.02,5.28H45.3v-4.56ZM119.16-.12a7.214,7.214,0,0,1-3.66.78,4.389,4.389,0,0,1-3.15-1.11,4.825,4.825,0,0,1-1.17-3.63,12.2,12.2,0,0,1-4.89,3.63A16.163,16.163,0,0,1,100.26.66,16.155,16.155,0,0,1,96.27.18,9.277,9.277,0,0,1,93-1.32a7.2,7.2,0,0,1-2.19-2.67A8.983,8.983,0,0,1,90-7.98a9.111,9.111,0,0,1,.9-4.32,7.852,7.852,0,0,1,2.37-2.73,10.859,10.859,0,0,1,3.36-1.59q1.89-.54,3.87-.9,2.1-.42,3.99-.63a22.229,22.229,0,0,0,3.33-.6,5.549,5.549,0,0,0,2.28-1.14,2.783,2.783,0,0,0,.84-2.19,5.09,5.09,0,0,0-.63-2.7,4.32,4.32,0,0,0-1.62-1.56,6.587,6.587,0,0,0-2.22-.72,16.765,16.765,0,0,0-2.43-.18,10.785,10.785,0,0,0-5.4,1.23q-2.16,1.23-2.34,4.65H91.2a11.016,11.016,0,0,1,1.2-4.86,9.1,9.1,0,0,1,2.88-3.21,12.083,12.083,0,0,1,4.11-1.77,21.706,21.706,0,0,1,4.95-.54,29.036,29.036,0,0,1,4.17.3,10.9,10.9,0,0,1,3.75,1.23,7.19,7.19,0,0,1,2.7,2.61,8.353,8.353,0,0,1,1.02,4.38V-7.26a11.936,11.936,0,0,0,.21,2.64q.21.84,1.41.84a5.051,5.051,0,0,0,1.56-.3Zm-8.28-15.9a6.348,6.348,0,0,1-2.52,1.05q-1.56.33-3.27.54t-3.45.48a12.685,12.685,0,0,0-3.12.87,5.676,5.676,0,0,0-2.25,1.71,4.789,4.789,0,0,0-.87,3.03,4.147,4.147,0,0,0,.51,2.13A4.251,4.251,0,0,0,97.23-4.8a5.538,5.538,0,0,0,1.89.78,10.487,10.487,0,0,0,2.28.24,12.081,12.081,0,0,0,4.32-.69,9.087,9.087,0,0,0,2.94-1.74,6.864,6.864,0,0,0,1.68-2.28,5.766,5.766,0,0,0,.54-2.31ZM129.3-36.6v-6.24h-5.1v6.24Zm-5.1,5.58V0h5.1V-31.02Zm13.32-11.82V0h5.1V-42.84Zm60.66,12.9h5.7a15.94,15.94,0,0,0-2.04-6.03,14.836,14.836,0,0,0-3.9-4.35,17.1,17.1,0,0,0-5.34-2.64,22.021,22.021,0,0,0-6.36-.9,20.5,20.5,0,0,0-8.73,1.77,18.042,18.042,0,0,0-6.36,4.83,21.182,21.182,0,0,0-3.87,7.17,28.581,28.581,0,0,0-1.32,8.79,30.208,30.208,0,0,0,1.23,8.76,20.233,20.233,0,0,0,3.69,7.08,17.088,17.088,0,0,0,6.18,4.71,20.651,20.651,0,0,0,8.7,1.71q8.22,0,12.96-4.5t5.58-12.6h-5.7a16.346,16.346,0,0,1-1.08,4.92,11.874,11.874,0,0,1-2.49,3.93,11.341,11.341,0,0,1-3.78,2.58,12.717,12.717,0,0,1-5.01.93,14.1,14.1,0,0,1-6.6-1.44,12.89,12.89,0,0,1-4.53-3.87,16.576,16.576,0,0,1-2.61-5.7,27.761,27.761,0,0,1-.84-6.93,24.817,24.817,0,0,1,.84-6.48,16.7,16.7,0,0,1,2.61-5.55,12.967,12.967,0,0,1,4.5-3.87,13.918,13.918,0,0,1,6.57-1.44,13.241,13.241,0,0,1,7.77,2.28A10.6,10.6,0,0,1,198.18-29.94ZM238.02-.12a7.214,7.214,0,0,1-3.66.78,4.389,4.389,0,0,1-3.15-1.11,4.825,4.825,0,0,1-1.17-3.63,12.2,12.2,0,0,1-4.89,3.63A16.163,16.163,0,0,1,219.12.66a16.155,16.155,0,0,1-3.99-.48,9.277,9.277,0,0,1-3.27-1.5,7.2,7.2,0,0,1-2.19-2.67,8.983,8.983,0,0,1-.81-3.99,9.111,9.111,0,0,1,.9-4.32,7.852,7.852,0,0,1,2.37-2.73,10.859,10.859,0,0,1,3.36-1.59q1.89-.54,3.87-.9,2.1-.42,3.99-.63a22.229,22.229,0,0,0,3.33-.6,5.548,5.548,0,0,0,2.28-1.14,2.783,2.783,0,0,0,.84-2.19,5.09,5.09,0,0,0-.63-2.7,4.32,4.32,0,0,0-1.62-1.56,6.587,6.587,0,0,0-2.22-.72,16.765,16.765,0,0,0-2.43-.18,10.786,10.786,0,0,0-5.4,1.23q-2.16,1.23-2.34,4.65h-5.1a11.016,11.016,0,0,1,1.2-4.86,9.1,9.1,0,0,1,2.88-3.21,12.083,12.083,0,0,1,4.11-1.77,21.706,21.706,0,0,1,4.95-.54,29.035,29.035,0,0,1,4.17.3,10.9,10.9,0,0,1,3.75,1.23,7.19,7.19,0,0,1,2.7,2.61,8.353,8.353,0,0,1,1.02,4.38V-7.26a11.936,11.936,0,0,0,.21,2.64q.21.84,1.41.84a5.051,5.051,0,0,0,1.56-.3Zm-8.28-15.9a6.348,6.348,0,0,1-2.52,1.05q-1.56.33-3.27.54t-3.45.48a12.685,12.685,0,0,0-3.12.87,5.676,5.676,0,0,0-2.25,1.71,4.789,4.789,0,0,0-.87,3.03,4.147,4.147,0,0,0,.51,2.13,4.251,4.251,0,0,0,1.32,1.41,5.538,5.538,0,0,0,1.89.78,10.487,10.487,0,0,0,2.28.24,12.081,12.081,0,0,0,4.32-.69,9.087,9.087,0,0,0,2.94-1.74,6.864,6.864,0,0,0,1.68-2.28,5.766,5.766,0,0,0,.54-2.31Zm13.2-15V11.82h5.1V-4.14h.12a8.216,8.216,0,0,0,2.07,2.31,10.9,10.9,0,0,0,2.61,1.47,14.165,14.165,0,0,0,2.79.78,15.33,15.33,0,0,0,2.55.24A14.4,14.4,0,0,0,264.39-.6a12.446,12.446,0,0,0,4.44-3.45,14.691,14.691,0,0,0,2.64-5.13,21.884,21.884,0,0,0,.87-6.24,21.2,21.2,0,0,0-.9-6.24,15.767,15.767,0,0,0-2.67-5.19,12.753,12.753,0,0,0-4.44-3.57,13.991,13.991,0,0,0-6.27-1.32,14.782,14.782,0,0,0-5.94,1.17,7.636,7.636,0,0,0-3.96,3.75h-.12v-4.2Zm24,15.24a20.406,20.406,0,0,1-.48,4.44A11.746,11.746,0,0,1,264.9-7.5a8.2,8.2,0,0,1-2.85,2.7,8.72,8.72,0,0,1-4.41,1.02,9.466,9.466,0,0,1-4.5-.99,8.734,8.734,0,0,1-3.03-2.61,10.914,10.914,0,0,1-1.71-3.75,17.876,17.876,0,0,1-.54-4.41,17.988,17.988,0,0,1,.51-4.26,11.165,11.165,0,0,1,1.65-3.75,8.778,8.778,0,0,1,2.94-2.67,8.758,8.758,0,0,1,4.38-1.02,9.109,9.109,0,0,1,4.29.96,8.526,8.526,0,0,1,3,2.58,11.416,11.416,0,0,1,1.74,3.69A15.861,15.861,0,0,1,266.94-15.78Zm18.48-15.24v-9.3h-5.1v9.3h-5.28v4.5h5.28V-6.78a11.787,11.787,0,0,0,.42,3.48,4.231,4.231,0,0,0,1.29,2.04,4.98,4.98,0,0,0,2.28.99A18.313,18.313,0,0,0,287.7,0h3.9V-4.5h-2.34a17.009,17.009,0,0,1-1.95-.09,2.519,2.519,0,0,1-1.17-.39,1.483,1.483,0,0,1-.57-.84,5.565,5.565,0,0,1-.15-1.44V-26.52h6.18v-4.5ZM322.92,0V-31.02h-5.1V-13.5a12.566,12.566,0,0,1-.57,3.87,8.789,8.789,0,0,1-1.71,3.09,7.594,7.594,0,0,1-2.85,2.04,10.394,10.394,0,0,1-4.05.72,6.243,6.243,0,0,1-4.62-1.68,6.162,6.162,0,0,1-1.68-4.56v-21h-5.1v20.4a19.2,19.2,0,0,0,.51,4.59,8.693,8.693,0,0,0,1.77,3.57,8.132,8.132,0,0,0,3.3,2.31,13.91,13.91,0,0,0,5.1.81,12.4,12.4,0,0,0,5.94-1.35A10.422,10.422,0,0,0,318-4.92h.12V0Zm7.5-31.02V0h5.1V-13.8a21.208,21.208,0,0,1,.6-5.31,10.178,10.178,0,0,1,1.92-3.93,8.229,8.229,0,0,1,3.48-2.46,14.424,14.424,0,0,1,5.22-.84v-5.4a11.462,11.462,0,0,0-6.84,1.68,13.816,13.816,0,0,0-4.56,5.58h-.12v-6.54Zm40.62,12.54H353.22a10.622,10.622,0,0,1,.78-3.39,9.042,9.042,0,0,1,1.8-2.79,8.244,8.244,0,0,1,2.73-1.89,8.88,8.88,0,0,1,3.57-.69,8.725,8.725,0,0,1,3.51.69,8.831,8.831,0,0,1,2.76,1.86,8.741,8.741,0,0,1,1.86,2.79A10.434,10.434,0,0,1,371.04-18.48Zm4.92,8.64h-5.04a7.252,7.252,0,0,1-2.73,4.56,8.827,8.827,0,0,1-5.31,1.5,10.564,10.564,0,0,1-4.38-.84,8.585,8.585,0,0,1-3.06-2.25,8.765,8.765,0,0,1-1.74-3.24,12.312,12.312,0,0,1-.48-3.87h23.22a24.7,24.7,0,0,0-.51-5.94,17.2,17.2,0,0,0-2.28-5.76,13.586,13.586,0,0,0-4.38-4.35,12.726,12.726,0,0,0-6.87-1.71,14.106,14.106,0,0,0-5.85,1.2,13.749,13.749,0,0,0-4.62,3.36,15.487,15.487,0,0,0-3.03,5.1,18.666,18.666,0,0,0-1.08,6.48,24.865,24.865,0,0,0,1.05,6.54,14.274,14.274,0,0,0,2.79,5.16,12.715,12.715,0,0,0,4.59,3.36A15.934,15.934,0,0,0,362.7.66a14.08,14.08,0,0,0,8.76-2.64A12.4,12.4,0,0,0,375.96-9.84Zm57.48-5.64V-42.84h-5.7v27.36q0,5.76-2.85,8.73t-8.31,2.97q-5.76,0-8.82-2.97t-3.06-8.73V-42.84H399v27.36q0,8.58,4.65,12.51T416.58.96q8.1,0,12.48-4.11T433.44-15.48Zm9.36-27.36V0h5.7V-42.84Z" transform="translate(-4.68 43.86)" fill="#fff"/>
</svg>
